<svg width="440" height="150" viewBox="0 0 440 150" fill="none" xmlns="http://www.w3.org/2000/svg">
<path d="M10.4593 122.548V58.5667H25.5844V62.4619C27.2972 60.8044 29.3277 59.5198 31.6759 58.6081C34.0241 57.6965 36.5243 57.2407 39.1764 57.2407C43.265 57.2407 46.8978 58.2214 50.0747 60.1828C53.2793 62.1443 55.7933 64.824 57.6166 68.2219C59.4675 71.6199 60.393 75.4737 60.393 79.7834C60.393 84.0377 59.4813 87.8639 57.658 91.2619C55.8347 94.6599 53.3484 97.3534 50.1991 99.3424C47.0497 101.332 43.4998 102.326 39.5493 102.326C36.9525 102.326 34.4523 101.843 32.0489 100.876C29.6731 99.8812 27.5182 98.4584 25.5844 96.6075V122.548H10.4593ZM34.9082 89.5215C36.7591 89.5215 38.4028 89.1071 39.8394 88.2783C41.2759 87.4219 42.3948 86.2754 43.1959 84.8389C44.0247 83.3747 44.4391 81.7172 44.4391 79.8662C44.4391 77.96 44.0109 76.2749 43.1545 74.8107C42.3257 73.3465 41.193 72.1862 39.7565 71.3298C38.3476 70.4734 36.7177 70.0452 34.8667 70.0452C33.0434 70.0452 31.3997 70.4734 29.9355 71.3298C28.499 72.1862 27.3525 73.3465 26.4961 74.8107C25.6673 76.2749 25.2529 77.9462 25.2529 79.8248C25.2529 81.6757 25.6673 83.3471 26.4961 84.8389C27.3249 86.3031 28.4713 87.4495 29.9355 88.2783C31.3997 89.1071 33.0572 89.5215 34.9082 89.5215ZM66.8549 101V29.7253H81.98V101H66.8549ZM109.378 102.326C105.483 102.326 101.947 101.359 98.7698 99.4253C95.5929 97.4639 93.0651 94.7842 91.1865 91.3862C89.308 87.9606 88.3687 84.0654 88.3687 79.7005C88.3687 75.4737 89.2665 71.6752 91.0622 68.3048C92.8579 64.9068 95.3304 62.2133 98.4798 60.2243C101.629 58.2352 105.262 57.2407 109.378 57.2407C112.058 57.2407 114.599 57.6965 117.003 58.6081C119.434 59.5198 121.492 60.8044 123.177 62.4619V58.5667H138.302V101H123.177V96.6075C121.188 98.486 119.033 99.9088 116.713 100.876C114.42 101.843 111.975 102.326 109.378 102.326ZM113.936 89.5215C115.815 89.5215 117.473 89.1071 118.909 88.2783C120.346 87.4219 121.464 86.2616 122.266 84.7974C123.067 83.3333 123.467 81.6619 123.467 79.7834C123.467 77.9048 123.053 76.2334 122.224 74.7693C121.423 73.3051 120.304 72.1586 118.868 71.3298C117.431 70.4734 115.787 70.0452 113.936 70.0452C112.113 70.0452 110.469 70.4734 109.005 71.3298C107.569 72.1586 106.422 73.3051 105.566 74.7693C104.737 76.2334 104.323 77.9048 104.323 79.7834C104.323 81.6343 104.737 83.3056 105.566 84.7974C106.395 86.2616 107.527 87.4219 108.964 88.2783C110.428 89.1071 112.085 89.5215 113.936 89.5215ZM163.634 102.326C159.049 102.326 155.471 100.889 152.902 98.0164C150.333 95.1157 149.048 91.0685 149.048 85.8749V70.0452H142.874V58.5667H149.048V42.6542H164.173V58.5667H173.041V70.0452H164.173V84.756C164.173 86.082 164.436 87.0904 164.96 87.781C165.513 88.4717 166.314 88.817 167.364 88.817C168.579 88.817 169.781 88.375 170.969 87.491L174.74 99.6325C173.138 100.461 171.356 101.111 169.394 101.58C167.433 102.077 165.513 102.326 163.634 102.326ZM202.933 102.326C194.7 102.326 188.761 100.765 185.114 97.6435C181.467 94.5217 179.644 89.4524 179.644 82.4354V58.5667H194.769V78.7059C194.769 82.8774 195.377 85.8196 196.592 87.5324C197.836 89.2176 199.949 90.0602 202.933 90.0602C205.944 90.0602 208.057 89.2176 209.273 87.5324C210.488 85.8196 211.096 82.8774 211.096 78.7059V58.5667H226.221V82.4354C226.221 89.4524 224.398 94.5217 220.751 97.6435C217.105 100.765 211.165 102.326 202.933 102.326ZM246.959 102.326C243.34 102.326 240.08 101.856 237.179 100.917C234.306 99.9778 231.861 98.5966 229.845 96.7732L235.977 86.455C237.884 88.002 239.762 89.19 241.613 90.0187C243.492 90.8199 245.287 91.2205 247 91.2205C247.829 91.2205 248.52 91.1099 249.072 90.8889C249.625 90.6679 250.039 90.3364 250.315 89.8944C250.619 89.4524 250.771 88.8999 250.771 88.2369C250.771 87.3528 250.495 86.6622 249.942 86.1649C249.417 85.64 248.561 85.129 247.373 84.6317C246.213 84.1344 244.693 83.499 242.815 82.7255C241.102 81.9796 239.486 81.1508 237.967 80.2392C236.447 79.3275 235.204 78.1672 234.237 76.7583C233.298 75.3494 232.828 73.5537 232.828 71.3713C232.828 68.6087 233.615 66.1776 235.19 64.0781C236.765 61.9509 238.933 60.2933 241.696 59.1054C244.486 57.9175 247.705 57.3235 251.351 57.3235C253.368 57.3235 255.564 57.586 257.94 58.1109C260.343 58.6081 263.023 59.3817 265.979 60.4315L261.089 70.3353C257.166 68.4015 253.962 67.4346 251.476 67.4346C250.15 67.4346 249.114 67.6832 248.368 68.1805C247.622 68.6778 247.249 69.2993 247.249 70.0452C247.249 70.8464 247.746 71.5923 248.741 72.2829C249.763 72.946 250.978 73.5399 252.387 74.0648C253.796 74.5897 255.067 75.0593 256.2 75.4737C258.189 76.1644 259.971 76.9793 261.545 77.9186C263.12 78.8579 264.363 80.1011 265.275 81.6481C266.186 83.1675 266.642 85.1842 266.642 87.6982C266.642 90.8475 265.869 93.5134 264.322 95.6958C262.802 97.8507 260.578 99.4944 257.65 100.627C254.722 101.76 251.158 102.326 246.959 102.326Z" fill="white"/>
<path d="M290.108 101L317.333 32.626H327.403L354.669 101H342.984L336.271 83.1813H308.507L301.752 101H290.108ZM312.195 73.6504H332.583L322.347 47.2125L312.195 73.6504ZM362.672 101V32.626H383.971C388.419 32.626 392.328 33.3996 395.698 34.9466C399.096 36.4937 401.748 38.759 403.655 41.7426C405.561 44.7262 406.514 48.4142 406.514 52.8067C406.514 57.144 405.561 60.8873 403.655 64.0366C401.748 67.1583 399.096 69.5756 395.698 71.2884C392.328 72.9736 388.419 73.8162 383.971 73.8162H373.529V101H362.672ZM373.529 65.0312H380.78C383.515 65.0312 385.96 64.5891 388.115 63.7051C390.297 62.8211 392.024 61.5089 393.295 59.7684C394.566 58.0004 395.201 55.7765 395.201 53.0968C395.201 50.4171 394.566 48.207 393.295 46.4666C392.024 44.7262 390.297 43.4416 388.115 42.6128C385.96 41.7564 383.515 41.3282 380.78 41.3282H373.529V65.0312ZM416.477 101V32.626H427.334V101H416.477Z" fill="white" fill-opacity="0.5"/>
</svg>
