<svg width="616" height="150" viewBox="0 0 616 150" fill="none" xmlns="http://www.w3.org/2000/svg">
<path d="M16.9758 147.889V59.1409H37.9558V64.544C40.3317 62.2448 43.1482 60.4629 46.4053 59.1984C49.6625 57.9338 53.1305 57.3016 56.8091 57.3016C62.4805 57.3016 67.5195 58.6619 71.9263 61.3826C76.3714 64.1033 79.8585 67.8203 82.3876 72.5337C84.955 77.247 86.2387 82.5926 86.2387 88.5705C86.2387 94.4717 84.9741 99.779 82.445 104.492C79.9159 109.206 76.4672 112.942 72.0987 115.701C67.7303 118.46 62.8062 119.839 57.3265 119.839C53.7244 119.839 50.2565 119.169 46.9227 117.828C43.6272 116.448 40.6382 114.475 37.9558 111.907V147.889H16.9758ZM50.8887 102.078C53.4562 102.078 55.7362 101.503 57.7288 100.354C59.7214 99.1659 61.2734 97.5756 62.3847 95.583C63.5343 93.552 64.109 91.2528 64.109 88.6854C64.109 86.0414 63.5151 83.7039 62.3272 81.6729C61.1776 79.642 59.6065 78.0325 57.6139 76.8446C55.6596 75.6567 53.3987 75.0628 50.8313 75.0628C48.3022 75.0628 46.0221 75.6567 43.9912 76.8446C41.9986 78.0325 40.4083 79.642 39.2204 81.6729C38.0708 83.7039 37.496 86.0222 37.496 88.6279C37.496 91.1954 38.0708 93.5137 39.2204 95.583C40.37 97.6139 41.9603 99.2042 43.9912 100.354C46.0221 101.503 48.3213 102.078 50.8887 102.078ZM95.2019 118V19.1351H116.182V118H95.2019ZM154.186 119.839C148.783 119.839 143.878 118.498 139.471 115.816C135.064 113.095 131.558 109.378 128.952 104.665C126.347 99.9131 125.044 94.51 125.044 88.4555C125.044 82.5926 126.289 77.3236 128.78 72.6486C131.271 67.9353 134.7 64.1991 139.069 61.4401C143.437 58.6811 148.476 57.3016 154.186 57.3016C157.903 57.3016 161.428 57.9338 164.762 59.1984C168.134 60.4629 170.989 62.2448 173.327 64.544V59.1409H194.307V118H173.327V111.907C170.568 114.513 167.579 116.486 164.36 117.828C161.179 119.169 157.788 119.839 154.186 119.839ZM160.509 102.078C163.114 102.078 165.413 101.503 167.406 100.354C169.399 99.1659 170.951 97.5564 172.062 95.5255C173.173 93.4945 173.729 91.1762 173.729 88.5705C173.729 85.9647 173.154 83.6464 172.004 81.6154C170.893 79.5845 169.341 77.9942 167.349 76.8446C165.356 75.6567 163.076 75.0628 160.509 75.0628C157.979 75.0628 155.699 75.6567 153.669 76.8446C151.676 77.9942 150.086 79.5845 148.898 81.6154C147.748 83.6464 147.173 85.9647 147.173 88.5705C147.173 91.1379 147.748 93.4562 148.898 95.5255C150.047 97.5564 151.618 99.1659 153.611 100.354C155.642 101.503 157.941 102.078 160.509 102.078ZM229.445 119.839C223.083 119.839 218.121 117.847 214.557 113.861C210.994 109.838 209.212 104.224 209.212 97.02V75.0628H200.647V59.1409H209.212V37.0688H230.192V59.1409H242.492V75.0628H230.192V95.468C230.192 97.3074 230.556 98.706 231.284 99.664C232.05 100.622 233.162 101.101 234.618 101.101C236.304 101.101 237.971 100.488 239.618 99.2617L244.849 116.103C242.627 117.253 240.155 118.153 237.434 118.805C234.714 119.494 232.05 119.839 229.445 119.839ZM283.955 119.839C272.536 119.839 264.297 117.674 259.239 113.344C254.181 109.014 251.651 101.982 251.651 92.2492V59.1409H272.631V87.076C272.631 92.8623 273.474 96.9433 275.161 99.3191C276.885 101.657 279.816 102.825 283.955 102.825C288.132 102.825 291.063 101.657 292.749 99.3191C294.435 96.9433 295.278 92.8623 295.278 87.076V59.1409H316.258V92.2492C316.258 101.982 313.729 109.014 308.671 113.344C303.613 117.674 295.374 119.839 283.955 119.839ZM345.023 119.839C340.003 119.839 335.482 119.188 331.458 117.885C327.473 116.582 324.082 114.666 321.284 112.137L329.791 97.8247C332.435 99.9706 335.041 101.618 337.609 102.768C340.214 103.879 342.705 104.435 345.081 104.435C346.23 104.435 347.188 104.282 347.955 103.975C348.721 103.668 349.296 103.209 349.679 102.595C350.101 101.982 350.312 101.216 350.312 100.296C350.312 99.0701 349.928 98.1121 349.162 97.4223C348.434 96.6942 347.246 95.9853 345.598 95.2956C343.989 94.6058 341.881 93.7245 339.275 92.6515C336.9 91.6169 334.658 90.4673 332.55 89.2027C330.443 87.9382 328.718 86.3288 327.377 84.3744C326.074 82.4201 325.423 79.9294 325.423 76.9021C325.423 73.0701 326.515 69.698 328.699 66.7857C330.883 63.8351 333.892 61.5359 337.723 59.8882C341.594 58.2404 346.058 57.4165 351.116 57.4165C353.914 57.4165 356.96 57.7806 360.255 58.5086C363.589 59.1984 367.306 60.2713 371.407 61.7275L364.624 75.4651C359.183 72.7827 354.737 71.4415 351.289 71.4415C349.449 71.4415 348.012 71.7864 346.978 72.4762C345.943 73.1659 345.426 74.0281 345.426 75.0628C345.426 76.174 346.115 77.2087 347.495 78.1667C348.913 79.0863 350.599 79.9102 352.553 80.6383C354.508 81.3664 356.27 82.0178 357.841 82.5926C360.6 83.5506 363.072 84.681 365.256 85.9839C367.44 87.2867 369.165 89.0111 370.429 91.157C371.694 93.2646 372.326 96.062 372.326 99.5491C372.326 103.918 371.253 107.615 369.107 110.643C367 113.632 363.915 115.912 359.853 117.483C355.791 119.054 350.848 119.839 345.023 119.839Z" fill="white"/>
<path d="M405.214 118L442.978 23.1587H456.946L494.767 118H478.558L469.246 93.2838H430.735L421.366 118H405.214ZM435.851 80.0635H464.131L449.933 43.3915L435.851 80.0635ZM505.867 118V23.1587H535.412C541.581 23.1587 547.003 24.2317 551.678 26.3776C556.392 28.5235 560.07 31.6657 562.714 35.8042C565.358 39.9427 566.68 45.0584 566.68 51.1513C566.68 57.1674 565.358 62.3598 562.714 66.7282C560.07 71.0583 556.392 74.4113 551.678 76.7871C547.003 79.1246 541.581 80.2934 535.412 80.2934H520.927V118H505.867ZM520.927 68.1077H530.986C534.779 68.1077 538.171 67.4946 541.16 66.2684C544.187 65.0422 546.582 63.222 548.344 60.8078C550.107 58.3554 550.989 55.2706 550.989 51.5536C550.989 47.8366 550.107 44.771 548.344 42.3569C546.582 39.9427 544.187 38.1609 541.16 37.0113C538.171 35.8234 534.779 35.2294 530.986 35.2294H520.927V68.1077ZM580.501 118V23.1587H595.56V118H580.501Z" fill="white" fill-opacity="0.5"/>
</svg>
