<svg width="300" height="100" viewBox="0 0 300 100" fill="none" xmlns="http://www.w3.org/2000/svg">
<path d="M30.2182 78.1629V41.6158H38.8579V43.8408C39.8363 42.894 40.9961 42.1602 42.3374 41.6394C43.6788 41.1187 45.1069 40.8583 46.6218 40.8583C48.9573 40.8583 51.0324 41.4185 52.8471 42.5389C54.6776 43.6593 56.1136 45.19 57.1551 47.131C58.2124 49.0719 58.741 51.2733 58.741 53.735C58.741 56.1652 58.2203 58.3507 57.1788 60.2917C56.1373 62.2327 54.717 63.7713 52.9181 64.9074C51.1191 66.0436 49.0914 66.6117 46.8348 66.6117C45.3515 66.6117 43.9233 66.3355 42.5505 65.7832C41.1934 65.2151 39.9625 64.4025 38.8579 63.3452V78.1629H30.2182ZM44.1837 59.2975C45.241 59.2975 46.1799 59.0608 47.0005 58.5874C47.8211 58.0982 48.4602 57.4434 48.9178 56.6228C49.3912 55.7864 49.6279 54.8396 49.6279 53.7823C49.6279 52.6935 49.3833 51.7309 48.8941 50.8946C48.4207 50.0582 47.7737 49.3954 46.9532 48.9062C46.1484 48.4171 45.2173 48.1725 44.16 48.1725C43.1186 48.1725 42.1796 48.4171 41.3433 48.9062C40.5227 49.3954 39.8678 50.0582 39.3786 50.8946C38.9052 51.7309 38.6685 52.6856 38.6685 53.7587C38.6685 54.816 38.9052 55.7707 39.3786 56.6228C39.852 57.4591 40.5069 58.114 41.3433 58.5874C42.1796 59.0608 43.1264 59.2975 44.1837 59.2975ZM62.4321 65.8542V25.1412H71.0718V65.8542H62.4321ZM86.722 66.6117C84.497 66.6117 82.4771 66.0594 80.6624 64.9548C78.8477 63.8344 77.4038 62.3037 76.3307 60.3627C75.2577 58.406 74.7211 56.1809 74.7211 53.6877C74.7211 51.2733 75.234 49.1035 76.2597 47.1783C77.2854 45.2373 78.6977 43.6988 80.4967 42.5626C82.2957 41.4264 84.3708 40.8583 86.722 40.8583C88.2527 40.8583 89.7045 41.1187 91.0774 41.6394C92.466 42.1602 93.6417 42.894 94.6043 43.8408V41.6158H103.244V65.8542H94.6043V63.3452C93.4681 64.4182 92.2372 65.2309 90.9117 65.7832C89.6019 66.3355 88.2054 66.6117 86.722 66.6117ZM89.3258 59.2975C90.3988 59.2975 91.3456 59.0608 92.1662 58.5874C92.9868 58.0982 93.6259 57.4355 94.0835 56.5991C94.5411 55.7628 94.77 54.8081 94.77 53.735C94.77 52.6619 94.5332 51.7072 94.0598 50.8709C93.6022 50.0345 92.9631 49.3796 92.1425 48.9062C91.322 48.4171 90.383 48.1725 89.3258 48.1725C88.2843 48.1725 87.3453 48.4171 86.509 48.9062C85.6884 49.3796 85.0335 50.0345 84.5443 50.8709C84.0709 51.7072 83.8342 52.6619 83.8342 53.735C83.8342 54.7923 84.0709 55.747 84.5443 56.5991C85.0177 57.4355 85.6647 58.0982 86.4853 58.5874C87.3217 59.0608 88.2685 59.2975 89.3258 59.2975ZM117.714 66.6117C115.094 66.6117 113.051 65.7911 111.583 64.15C110.116 62.4931 109.382 60.1812 109.382 57.2146V48.1725H105.855V41.6158H109.382V32.5263H118.022V41.6158H123.087V48.1725H118.022V56.5755C118.022 57.3329 118.172 57.9089 118.471 58.3034C118.787 58.6979 119.245 58.8952 119.844 58.8952C120.539 58.8952 121.225 58.6427 121.904 58.1377L124.058 65.0731C123.142 65.5465 122.125 65.9174 121.004 66.1856C119.884 66.4697 118.787 66.6117 117.714 66.6117ZM140.162 66.6117C135.459 66.6117 132.066 65.7201 129.983 63.9369C127.9 62.1538 126.859 59.2581 126.859 55.2499V41.6158H135.499V53.1196C135.499 55.5024 135.846 57.183 136.54 58.1614C137.25 59.124 138.457 59.6053 140.162 59.6053C141.882 59.6053 143.089 59.124 143.783 58.1614C144.478 57.183 144.825 55.5024 144.825 53.1196V41.6158H153.464V55.2499C153.464 59.2581 152.423 62.1538 150.34 63.9369C148.257 65.7201 144.864 66.6117 140.162 66.6117ZM165.31 66.6117C163.243 66.6117 161.381 66.3434 159.724 65.8069C158.083 65.2704 156.686 64.4814 155.534 63.4399L159.037 57.5459C160.126 58.4296 161.199 59.1082 162.256 59.5816C163.33 60.0392 164.355 60.268 165.334 60.268C165.807 60.268 166.202 60.2049 166.517 60.0787C166.833 59.9524 167.069 59.7631 167.227 59.5106C167.401 59.2581 167.488 58.9425 167.488 58.5638C167.488 58.0588 167.33 57.6643 167.014 57.3802C166.714 57.0804 166.225 56.7885 165.547 56.5044C164.884 56.2204 164.016 55.8574 162.943 55.4156C161.965 54.9895 161.041 54.5161 160.173 53.9954C159.306 53.4746 158.595 52.8119 158.043 52.0071C157.507 51.2023 157.238 50.1766 157.238 48.9299C157.238 47.3519 157.688 45.9632 158.588 44.7639C159.487 43.5488 160.726 42.602 162.304 41.9235C163.898 41.2449 165.736 40.9056 167.819 40.9056C168.971 40.9056 170.226 41.0556 171.583 41.3554C172.956 41.6394 174.486 42.0813 176.175 42.6809L173.382 48.3382C171.141 47.2335 169.31 46.6812 167.89 46.6812C167.133 46.6812 166.541 46.8232 166.115 47.1073C165.689 47.3913 165.476 47.7464 165.476 48.1725C165.476 48.6301 165.76 49.0562 166.328 49.4507C166.912 49.8294 167.606 50.1687 168.411 50.4685C169.216 50.7683 169.941 51.0366 170.588 51.2733C171.725 51.6678 172.742 52.1333 173.642 52.6698C174.541 53.2064 175.252 53.9165 175.772 54.8002C176.293 55.6681 176.553 56.82 176.553 58.256C176.553 60.055 176.112 61.5778 175.228 62.8244C174.36 64.0553 173.09 64.9942 171.417 65.6412C169.744 66.2882 167.709 66.6117 165.31 66.6117Z" fill="white"/>
<path d="M190.159 65.8542L205.71 26.7981H211.462L227.037 65.8542H220.362L216.528 55.676H200.669L196.81 65.8542H190.159ZM202.775 50.2318H214.421L208.575 35.1301L202.775 50.2318ZM231.608 65.8542V26.7981H243.775C246.316 26.7981 248.549 27.2399 250.474 28.1236C252.415 29.0073 253.93 30.3013 255.018 32.0056C256.107 33.7098 256.652 35.8165 256.652 38.3256C256.652 40.8031 256.107 42.9413 255.018 44.7403C253.93 46.5234 252.415 47.9042 250.474 48.8826C248.549 49.8452 246.316 50.3265 243.775 50.3265H237.81V65.8542H231.608ZM237.81 45.3083H241.952C243.515 45.3083 244.911 45.0559 246.142 44.5509C247.389 44.0459 248.375 43.2964 249.101 42.3022C249.827 41.2923 250.19 40.022 250.19 38.4913C250.19 36.9606 249.827 35.6982 249.101 34.704C248.375 33.7098 247.389 32.9761 246.142 32.5027C244.911 32.0135 243.515 31.7689 241.952 31.7689H237.81V45.3083ZM262.343 65.8542V26.7981H268.545V65.8542H262.343Z" fill="white" fill-opacity="0.5"/>
</svg>
