<svg width="1200" height="627" viewBox="0 0 1200 627" fill="none" xmlns="http://www.w3.org/2000/svg">
<rect width="1200" height="627" fill="#1A5CBF"/>
<path d="M455.372 227.64C457.14 227.64 458.715 228.025 460.098 228.796C461.503 229.567 462.602 230.655 463.396 232.06C464.189 233.465 464.586 235.086 464.586 236.922C464.586 238.758 464.189 240.39 463.396 241.818C462.602 243.223 461.503 244.311 460.098 245.082C458.715 245.853 457.14 246.238 455.372 246.238C454.125 246.238 452.98 246.023 451.938 245.592C450.918 245.161 450.056 244.515 449.354 243.654V246H445.308V220.772H449.558V230.054C450.283 229.261 451.133 228.66 452.108 228.252C453.105 227.844 454.193 227.64 455.372 227.64ZM454.896 242.6C456.46 242.6 457.74 242.079 458.738 241.036C459.758 239.993 460.268 238.622 460.268 236.922C460.268 235.222 459.758 233.851 458.738 232.808C457.74 231.765 456.46 231.244 454.896 231.244C453.876 231.244 452.958 231.482 452.142 231.958C451.326 232.411 450.68 233.069 450.204 233.93C449.728 234.791 449.49 235.789 449.49 236.922C449.49 238.055 449.728 239.053 450.204 239.914C450.68 240.775 451.326 241.444 452.142 241.92C452.958 242.373 453.876 242.6 454.896 242.6ZM485.684 237.024C485.684 237.319 485.661 237.738 485.616 238.282H471.37C471.619 239.619 472.265 240.685 473.308 241.478C474.373 242.249 475.688 242.634 477.252 242.634C479.247 242.634 480.89 241.977 482.182 240.662L484.46 243.28C483.644 244.255 482.613 244.991 481.366 245.49C480.119 245.989 478.714 246.238 477.15 246.238C475.155 246.238 473.399 245.841 471.88 245.048C470.361 244.255 469.183 243.155 468.344 241.75C467.528 240.322 467.12 238.713 467.12 236.922C467.12 235.154 467.517 233.567 468.31 232.162C469.126 230.734 470.248 229.623 471.676 228.83C473.104 228.037 474.713 227.64 476.504 227.64C478.272 227.64 479.847 228.037 481.23 228.83C482.635 229.601 483.723 230.7 484.494 232.128C485.287 233.533 485.684 235.165 485.684 237.024ZM476.504 231.04C475.144 231.04 473.988 231.448 473.036 232.264C472.107 233.057 471.54 234.123 471.336 235.46H481.638C481.457 234.145 480.901 233.08 479.972 232.264C479.043 231.448 477.887 231.04 476.504 231.04ZM507.787 227.844V243.246C507.787 249.638 504.523 252.834 497.995 252.834C496.249 252.834 494.595 252.607 493.031 252.154C491.467 251.723 490.175 251.089 489.155 250.25L491.059 247.054C491.852 247.711 492.849 248.233 494.051 248.618C495.275 249.026 496.51 249.23 497.757 249.23C499.751 249.23 501.213 248.777 502.143 247.87C503.072 246.963 503.537 245.581 503.537 243.722V242.77C502.811 243.563 501.927 244.164 500.885 244.572C499.842 244.98 498.697 245.184 497.451 245.184C495.728 245.184 494.164 244.821 492.759 244.096C491.376 243.348 490.277 242.305 489.461 240.968C488.667 239.631 488.271 238.101 488.271 236.378C488.271 234.655 488.667 233.137 489.461 231.822C490.277 230.485 491.376 229.453 492.759 228.728C494.164 228.003 495.728 227.64 497.451 227.64C498.765 227.64 499.955 227.855 501.021 228.286C502.109 228.717 503.015 229.374 503.741 230.258V227.844H507.787ZM498.097 241.58C499.706 241.58 501.021 241.104 502.041 240.152C503.083 239.177 503.605 237.919 503.605 236.378C503.605 234.859 503.083 233.624 502.041 232.672C501.021 231.72 499.706 231.244 498.097 231.244C496.465 231.244 495.127 231.72 494.085 232.672C493.065 233.624 492.555 234.859 492.555 236.378C492.555 237.919 493.065 239.177 494.085 240.152C495.127 241.104 496.465 241.58 498.097 241.58ZM513.374 220.772H517.624V246H513.374V220.772ZM530.138 227.64C532.813 227.64 534.853 228.286 536.258 229.578C537.686 230.847 538.4 232.774 538.4 235.358V246H534.388V243.79C533.867 244.583 533.119 245.195 532.144 245.626C531.192 246.034 530.036 246.238 528.676 246.238C527.316 246.238 526.126 246.011 525.106 245.558C524.086 245.082 523.293 244.436 522.726 243.62C522.182 242.781 521.91 241.841 521.91 240.798C521.91 239.166 522.511 237.863 523.712 236.888C524.936 235.891 526.851 235.392 529.458 235.392H534.15V235.12C534.15 233.851 533.765 232.876 532.994 232.196C532.246 231.516 531.124 231.176 529.628 231.176C528.608 231.176 527.599 231.335 526.602 231.652C525.627 231.969 524.8 232.411 524.12 232.978L522.454 229.884C523.406 229.159 524.551 228.603 525.888 228.218C527.225 227.833 528.642 227.64 530.138 227.64ZM529.56 243.144C530.625 243.144 531.566 242.906 532.382 242.43C533.221 241.931 533.81 241.229 534.15 240.322V238.214H529.764C527.316 238.214 526.092 239.019 526.092 240.628C526.092 241.399 526.398 242.011 527.01 242.464C527.622 242.917 528.472 243.144 529.56 243.144ZM561.432 227.844V246H557.386V243.688C556.706 244.504 555.856 245.139 554.836 245.592C553.816 246.023 552.717 246.238 551.538 246.238C549.113 246.238 547.198 245.569 545.792 244.232C544.41 242.872 543.718 240.866 543.718 238.214V227.844H547.968V237.636C547.968 239.268 548.331 240.492 549.056 241.308C549.804 242.101 550.858 242.498 552.218 242.498C553.737 242.498 554.938 242.033 555.822 241.104C556.729 240.152 557.182 238.792 557.182 237.024V227.844H561.432ZM577.061 227.64C578.829 227.64 580.404 228.025 581.787 228.796C583.192 229.567 584.292 230.655 585.085 232.06C585.878 233.465 586.275 235.086 586.275 236.922C586.275 238.758 585.878 240.39 585.085 241.818C584.292 243.223 583.192 244.311 581.787 245.082C580.404 245.853 578.829 246.238 577.061 246.238C575.814 246.238 574.67 246.023 573.627 245.592C572.607 245.161 571.746 244.515 571.043 243.654V246H566.997V220.772H571.247V230.054C571.972 229.261 572.822 228.66 573.797 228.252C574.794 227.844 575.882 227.64 577.061 227.64ZM576.585 242.6C578.149 242.6 579.43 242.079 580.427 241.036C581.447 239.993 581.957 238.622 581.957 236.922C581.957 235.222 581.447 233.851 580.427 232.808C579.43 231.765 578.149 231.244 576.585 231.244C575.565 231.244 574.647 231.482 573.831 231.958C573.015 232.411 572.369 233.069 571.893 233.93C571.417 234.791 571.179 235.789 571.179 236.922C571.179 238.055 571.417 239.053 571.893 239.914C572.369 240.775 573.015 241.444 573.831 241.92C574.647 242.373 575.565 242.6 576.585 242.6ZM590.306 227.844H594.556V246H590.306V227.844ZM592.448 224.852C591.677 224.852 591.031 224.614 590.51 224.138C589.988 223.639 589.728 223.027 589.728 222.302C589.728 221.577 589.988 220.976 590.51 220.5C591.031 220.001 591.677 219.752 592.448 219.752C593.218 219.752 593.864 219.99 594.386 220.466C594.907 220.919 595.168 221.497 595.168 222.2C595.168 222.948 594.907 223.583 594.386 224.104C593.887 224.603 593.241 224.852 592.448 224.852ZM618.154 227.844V243.246C618.154 249.638 614.89 252.834 608.362 252.834C606.616 252.834 604.962 252.607 603.398 252.154C601.834 251.723 600.542 251.089 599.522 250.25L601.426 247.054C602.219 247.711 603.216 248.233 604.418 248.618C605.642 249.026 606.877 249.23 608.124 249.23C610.118 249.23 611.58 248.777 612.51 247.87C613.439 246.963 613.904 245.581 613.904 243.722V242.77C613.178 243.563 612.294 244.164 611.252 244.572C610.209 244.98 609.064 245.184 607.818 245.184C606.095 245.184 604.531 244.821 603.126 244.096C601.743 243.348 600.644 242.305 599.828 240.968C599.034 239.631 598.638 238.101 598.638 236.378C598.638 234.655 599.034 233.137 599.828 231.822C600.644 230.485 601.743 229.453 603.126 228.728C604.531 228.003 606.095 227.64 607.818 227.64C609.132 227.64 610.322 227.855 611.388 228.286C612.476 228.717 613.382 229.374 614.108 230.258V227.844H618.154ZM608.464 241.58C610.073 241.58 611.388 241.104 612.408 240.152C613.45 239.177 613.972 237.919 613.972 236.378C613.972 234.859 613.45 233.624 612.408 232.672C611.388 231.72 610.073 231.244 608.464 231.244C606.832 231.244 605.494 231.72 604.452 232.672C603.432 233.624 602.922 234.859 602.922 236.378C602.922 237.919 603.432 239.177 604.452 240.152C605.494 241.104 606.832 241.58 608.464 241.58ZM634.655 245.014C634.156 245.422 633.544 245.728 632.819 245.932C632.116 246.136 631.368 246.238 630.575 246.238C628.58 246.238 627.039 245.717 625.951 244.674C624.863 243.631 624.319 242.113 624.319 240.118V231.38H621.327V227.98H624.319V223.832H628.569V227.98H633.431V231.38H628.569V240.016C628.569 240.9 628.784 241.58 629.215 242.056C629.646 242.509 630.269 242.736 631.085 242.736C632.037 242.736 632.83 242.487 633.465 241.988L634.655 245.014ZM639.817 246.272C638.888 246.272 638.106 245.955 637.471 245.32C636.837 244.685 636.519 243.892 636.519 242.94C636.519 241.965 636.837 241.183 637.471 240.594C638.106 239.982 638.888 239.676 639.817 239.676C640.747 239.676 641.529 239.982 642.163 240.594C642.798 241.183 643.115 241.965 643.115 242.94C643.115 243.892 642.798 244.685 642.163 245.32C641.529 245.955 640.747 246.272 639.817 246.272ZM663.948 220.772V246H661.636V242.464C660.91 243.665 659.947 244.583 658.746 245.218C657.567 245.853 656.23 246.17 654.734 246.17C653.056 246.17 651.538 245.785 650.178 245.014C648.818 244.243 647.752 243.167 646.982 241.784C646.211 240.401 645.826 238.826 645.826 237.058C645.826 235.29 646.211 233.715 646.982 232.332C647.752 230.949 648.818 229.884 650.178 229.136C651.538 228.365 653.056 227.98 654.734 227.98C656.184 227.98 657.488 228.286 658.644 228.898C659.822 229.487 660.786 230.36 661.534 231.516V220.772H663.948ZM654.938 244.028C656.184 244.028 657.306 243.745 658.304 243.178C659.324 242.589 660.117 241.761 660.684 240.696C661.273 239.631 661.568 238.418 661.568 237.058C661.568 235.698 661.273 234.485 660.684 233.42C660.117 232.355 659.324 231.539 658.304 230.972C657.306 230.383 656.184 230.088 654.938 230.088C653.668 230.088 652.524 230.383 651.504 230.972C650.506 231.539 649.713 232.355 649.124 233.42C648.557 234.485 648.274 235.698 648.274 237.058C648.274 238.418 648.557 239.631 649.124 240.696C649.713 241.761 650.506 242.589 651.504 243.178C652.524 243.745 653.668 244.028 654.938 244.028ZM686.243 237.806H671.283C671.419 239.665 672.133 241.172 673.425 242.328C674.717 243.461 676.349 244.028 678.321 244.028C679.431 244.028 680.451 243.835 681.381 243.45C682.31 243.042 683.115 242.453 683.795 241.682L685.155 243.246C684.361 244.198 683.364 244.923 682.163 245.422C680.984 245.921 679.681 246.17 678.253 246.17C676.417 246.17 674.785 245.785 673.357 245.014C671.951 244.221 670.852 243.133 670.059 241.75C669.265 240.367 668.869 238.803 668.869 237.058C668.869 235.313 669.243 233.749 669.991 232.366C670.761 230.983 671.804 229.907 673.119 229.136C674.456 228.365 675.952 227.98 677.607 227.98C679.261 227.98 680.746 228.365 682.061 229.136C683.375 229.907 684.407 230.983 685.155 232.366C685.903 233.726 686.277 235.29 686.277 237.058L686.243 237.806ZM677.607 230.054C675.884 230.054 674.433 230.609 673.255 231.72C672.099 232.808 671.441 234.236 671.283 236.004H683.965C683.806 234.236 683.137 232.808 681.959 231.72C680.803 230.609 679.352 230.054 677.607 230.054ZM715.219 240.9H704.169L702.061 246H696.417L707.025 222.2H712.465L723.107 246H717.327L715.219 240.9ZM713.485 236.718L709.711 227.606L705.937 236.718H713.485ZM735.878 222.2C737.986 222.2 739.811 222.551 741.352 223.254C742.916 223.957 744.117 224.954 744.956 226.246C745.795 227.538 746.214 229.068 746.214 230.836C746.214 232.581 745.795 234.111 744.956 235.426C744.117 236.718 742.916 237.715 741.352 238.418C739.811 239.098 737.986 239.438 735.878 239.438H731.084V246H725.576V222.2H735.878ZM735.572 234.95C737.227 234.95 738.485 234.599 739.346 233.896C740.207 233.171 740.638 232.151 740.638 230.836C740.638 229.499 740.207 228.479 739.346 227.776C738.485 227.051 737.227 226.688 735.572 226.688H731.084V234.95H735.572ZM750.146 222.2H755.654V246H750.146V222.2ZM437.585 338.68L427.997 312.024L425.719 311.548V310.8H435.171V311.548L432.077 312.024L439.387 332.152L444.351 319.164L441.801 312.024L438.673 311.548V310.8H448.771V311.548L445.847 311.956L453.225 332.118L460.535 313.078L456.693 311.548V310.8H464.003V311.548L461.419 313.044L451.695 338.68H451.423L444.793 320.354L437.857 338.68H437.585ZM471.236 338.34C469.559 338.34 468.04 337.966 466.68 337.218C465.32 336.447 464.243 335.371 463.45 333.988C462.657 332.605 462.26 331.007 462.26 329.194C462.26 327.381 462.645 325.794 463.416 324.434C464.209 323.051 465.263 321.986 466.578 321.238C467.915 320.467 469.4 320.082 471.032 320.082C472.46 320.082 473.741 320.399 474.874 321.034C476.007 321.669 476.891 322.553 477.526 323.686C478.161 324.797 478.489 326.077 478.512 327.528H466V330.894C466 332.889 466.442 334.509 467.326 335.756C468.233 336.98 469.536 337.592 471.236 337.592C472.8 337.592 474.183 337.15 475.384 336.266C476.585 335.382 477.322 334.237 477.594 332.832H478.376C478.059 334.509 477.254 335.847 475.962 336.844C474.67 337.841 473.095 338.34 471.236 338.34ZM474.772 326.678C474.772 324.706 474.466 323.244 473.854 322.292C473.242 321.317 472.29 320.83 470.998 320.83C469.479 320.83 468.301 321.363 467.462 322.428C466.623 323.493 466.147 324.91 466.034 326.678H474.772ZM480.536 338V337.32L483.086 336.98V311.82L480.536 311.48V310.8H486.486V336.98L488.866 337.32V338H480.536ZM499.853 338.34C498.221 338.34 496.736 337.966 495.399 337.218C494.062 336.447 492.996 335.371 492.203 333.988C491.432 332.583 491.047 330.985 491.047 329.194C491.047 327.313 491.455 325.681 492.271 324.298C493.11 322.915 494.198 321.873 495.535 321.17C496.872 320.445 498.312 320.082 499.853 320.082C501.145 320.082 502.324 320.309 503.389 320.762C504.454 321.193 505.293 321.805 505.905 322.598C506.54 323.391 506.857 324.287 506.857 325.284C506.857 326.032 506.664 326.61 506.279 327.018C505.894 327.403 505.384 327.596 504.749 327.596C504.137 327.596 503.627 327.392 503.219 326.984C502.811 326.576 502.607 326.066 502.607 325.454C502.947 325.227 503.185 324.978 503.321 324.706C503.457 324.434 503.525 324.094 503.525 323.686C503.525 322.847 503.185 322.167 502.505 321.646C501.848 321.102 500.964 320.83 499.853 320.83C498.221 320.83 496.963 321.419 496.079 322.598C495.218 323.754 494.787 325.386 494.787 327.494V330.894C494.787 332.911 495.206 334.532 496.045 335.756C496.906 336.98 498.176 337.592 499.853 337.592C501.394 337.592 502.732 337.161 503.865 336.3C505.021 335.416 505.735 334.26 506.007 332.832H506.789C506.472 334.509 505.678 335.847 504.409 336.844C503.162 337.841 501.644 338.34 499.853 338.34ZM518.447 338.34C516.815 338.34 515.33 337.966 513.993 337.218C512.655 336.447 511.59 335.371 510.797 333.988C510.026 332.583 509.641 330.985 509.641 329.194C509.641 327.403 510.026 325.817 510.797 324.434C511.59 323.051 512.655 321.986 513.993 321.238C515.33 320.467 516.815 320.082 518.447 320.082C520.079 320.082 521.563 320.467 522.901 321.238C524.238 321.986 525.292 323.051 526.063 324.434C526.856 325.817 527.253 327.403 527.253 329.194C527.253 330.985 526.856 332.583 526.063 333.988C525.292 335.371 524.238 336.447 522.901 337.218C521.563 337.966 520.079 338.34 518.447 338.34ZM518.447 337.592C520.124 337.592 521.382 336.98 522.221 335.756C523.082 334.532 523.513 332.911 523.513 330.894V327.494C523.513 325.477 523.082 323.867 522.221 322.666C521.382 321.442 520.124 320.83 518.447 320.83C516.769 320.83 515.5 321.442 514.639 322.666C513.8 323.867 513.381 325.477 513.381 327.494V330.894C513.381 332.911 513.8 334.532 514.639 335.756C515.5 336.98 516.769 337.592 518.447 337.592ZM529.616 337.32L531.996 336.98V321.408L529.616 321.068V320.388H535.396V323.516C536.212 322.451 537.13 321.612 538.15 321C539.193 320.388 540.315 320.082 541.516 320.082C542.899 320.082 544.021 320.388 544.882 321C545.766 321.589 546.322 322.485 546.548 323.686C547.364 322.575 548.294 321.703 549.336 321.068C550.379 320.411 551.524 320.082 552.77 320.082C554.38 320.082 555.626 320.49 556.51 321.306C557.417 322.099 557.87 323.312 557.87 324.944V336.98L560.25 337.32V338H552.43V337.32L554.47 336.98V325.012C554.47 323.811 554.255 322.893 553.824 322.258C553.394 321.623 552.691 321.306 551.716 321.306C550.787 321.306 549.88 321.623 548.996 322.258C548.135 322.893 547.353 323.709 546.65 324.706V336.98L548.69 337.32V338H541.176V337.32L543.216 336.98V325.012C543.216 323.811 543.001 322.893 542.57 322.258C542.14 321.623 541.437 321.306 540.462 321.306C539.533 321.306 538.626 321.623 537.742 322.258C536.881 322.893 536.099 323.709 535.396 324.706V336.98L537.436 337.32V338H529.616V337.32ZM571.31 338.34C569.633 338.34 568.114 337.966 566.754 337.218C565.394 336.447 564.317 335.371 563.524 333.988C562.731 332.605 562.334 331.007 562.334 329.194C562.334 327.381 562.719 325.794 563.49 324.434C564.283 323.051 565.337 321.986 566.652 321.238C567.989 320.467 569.474 320.082 571.106 320.082C572.534 320.082 573.815 320.399 574.948 321.034C576.081 321.669 576.965 322.553 577.6 323.686C578.235 324.797 578.563 326.077 578.586 327.528H566.074V330.894C566.074 332.889 566.516 334.509 567.4 335.756C568.307 336.98 569.61 337.592 571.31 337.592C572.874 337.592 574.257 337.15 575.458 336.266C576.659 335.382 577.396 334.237 577.668 332.832H578.45C578.133 334.509 577.328 335.847 576.036 336.844C574.744 337.841 573.169 338.34 571.31 338.34ZM574.846 326.678C574.846 324.706 574.54 323.244 573.928 322.292C573.316 321.317 572.364 320.83 571.072 320.83C569.553 320.83 568.375 321.363 567.536 322.428C566.697 323.493 566.221 324.91 566.108 326.678H574.846ZM589.425 337.286L592.553 336.776V312.024L589.425 311.548V310.8H602.447C604.941 310.8 607.151 311.367 609.077 312.5C611.027 313.611 612.545 315.197 613.633 317.26C614.721 319.3 615.265 321.68 615.265 324.4C615.265 327.12 614.721 329.511 613.633 331.574C612.545 333.614 611.027 335.201 609.077 336.334C607.128 337.445 604.918 338 602.447 338H589.425V337.286ZM602.447 337.184C604.102 337.184 605.564 336.799 606.833 336.028C608.125 335.257 609.134 334.113 609.859 332.594C610.585 331.053 610.947 329.194 610.947 327.018V321.782C610.947 319.606 610.585 317.759 609.859 316.24C609.134 314.721 608.125 313.577 606.833 312.806C605.564 312.035 604.102 311.65 602.447 311.65H596.293V337.184H602.447ZM627.523 338.34C625.846 338.34 624.327 337.966 622.967 337.218C621.607 336.447 620.53 335.371 619.737 333.988C618.944 332.605 618.547 331.007 618.547 329.194C618.547 327.381 618.932 325.794 619.703 324.434C620.496 323.051 621.55 321.986 622.865 321.238C624.202 320.467 625.687 320.082 627.319 320.082C628.747 320.082 630.028 320.399 631.161 321.034C632.294 321.669 633.178 322.553 633.813 323.686C634.448 324.797 634.776 326.077 634.799 327.528H622.287V330.894C622.287 332.889 622.729 334.509 623.613 335.756C624.52 336.98 625.823 337.592 627.523 337.592C629.087 337.592 630.47 337.15 631.671 336.266C632.872 335.382 633.609 334.237 633.881 332.832H634.663C634.346 334.509 633.541 335.847 632.249 336.844C630.957 337.841 629.382 338.34 627.523 338.34ZM631.059 326.678C631.059 324.706 630.753 323.244 630.141 322.292C629.529 321.317 628.577 320.83 627.285 320.83C625.766 320.83 624.588 321.363 623.749 322.428C622.91 323.493 622.434 324.91 622.321 326.678H631.059ZM644.822 338.68L637.546 321.408L635.336 321.068V320.388H643.802V321.068L641.354 321.51L646.488 334.294L651.078 321.952L648.086 321.102V320.422H654.172V321.102L652.03 321.918L645.774 338.68H644.822ZM663.615 338.34C661.937 338.34 660.419 337.966 659.059 337.218C657.699 336.447 656.622 335.371 655.829 333.988C655.035 332.605 654.639 331.007 654.639 329.194C654.639 327.381 655.024 325.794 655.795 324.434C656.588 323.051 657.642 321.986 658.957 321.238C660.294 320.467 661.779 320.082 663.411 320.082C664.839 320.082 666.119 320.399 667.253 321.034C668.386 321.669 669.27 322.553 669.905 323.686C670.539 324.797 670.868 326.077 670.891 327.528H658.379V330.894C658.379 332.889 658.821 334.509 659.705 335.756C660.611 336.98 661.915 337.592 663.615 337.592C665.179 337.592 666.561 337.15 667.763 336.266C668.964 335.382 669.701 334.237 669.973 332.832H670.755C670.437 334.509 669.633 335.847 668.341 336.844C667.049 337.841 665.473 338.34 663.615 338.34ZM667.151 326.678C667.151 324.706 666.845 323.244 666.233 322.292C665.621 321.317 664.669 320.83 663.377 320.83C661.858 320.83 660.679 321.363 659.841 322.428C659.002 323.493 658.526 324.91 658.413 326.678H667.151ZM672.915 338V337.32L675.465 336.98V311.82L672.915 311.48V310.8H678.865V336.98L681.245 337.32V338H672.915ZM692.232 338.34C690.6 338.34 689.115 337.966 687.778 337.218C686.441 336.447 685.375 335.371 684.582 333.988C683.811 332.583 683.426 330.985 683.426 329.194C683.426 327.403 683.811 325.817 684.582 324.434C685.375 323.051 686.441 321.986 687.778 321.238C689.115 320.467 690.6 320.082 692.232 320.082C693.864 320.082 695.349 320.467 696.686 321.238C698.023 321.986 699.077 323.051 699.848 324.434C700.641 325.817 701.038 327.403 701.038 329.194C701.038 330.985 700.641 332.583 699.848 333.988C699.077 335.371 698.023 336.447 696.686 337.218C695.349 337.966 693.864 338.34 692.232 338.34ZM692.232 337.592C693.909 337.592 695.167 336.98 696.006 335.756C696.867 334.532 697.298 332.911 697.298 330.894V327.494C697.298 325.477 696.867 323.867 696.006 322.666C695.167 321.442 693.909 320.83 692.232 320.83C690.555 320.83 689.285 321.442 688.424 322.666C687.585 323.867 687.166 325.477 687.166 327.494V330.894C687.166 332.911 687.585 334.532 688.424 335.756C689.285 336.98 690.555 337.592 692.232 337.592ZM703.197 346.942L705.577 346.602V321.442L703.197 321.102V320.422H708.977V323.992C709.544 322.768 710.303 321.816 711.255 321.136C712.23 320.433 713.386 320.082 714.723 320.082C716.333 320.082 717.749 320.467 718.973 321.238C720.197 321.986 721.149 323.051 721.829 324.434C722.509 325.794 722.849 327.392 722.849 329.228C722.849 331.064 722.509 332.673 721.829 334.056C721.149 335.416 720.197 336.47 718.973 337.218C717.749 337.966 716.333 338.34 714.723 338.34C713.386 338.34 712.23 338 711.255 337.32C710.303 336.617 709.544 335.665 708.977 334.464V346.602L712.173 346.942V347.622H703.197V346.942ZM714.383 337.49C717.534 337.49 719.109 335.303 719.109 330.928V327.528C719.109 323.131 717.534 320.932 714.383 320.932C713.386 320.932 712.479 321.227 711.663 321.816C710.847 322.383 710.201 323.153 709.725 324.128C709.249 325.103 709 326.157 708.977 327.29V330.928C708.977 332.084 709.204 333.172 709.657 334.192C710.133 335.189 710.779 335.994 711.595 336.606C712.434 337.195 713.363 337.49 714.383 337.49ZM734.736 338.34C733.059 338.34 731.54 337.966 730.18 337.218C728.82 336.447 727.743 335.371 726.95 333.988C726.157 332.605 725.76 331.007 725.76 329.194C725.76 327.381 726.145 325.794 726.916 324.434C727.709 323.051 728.763 321.986 730.078 321.238C731.415 320.467 732.9 320.082 734.532 320.082C735.96 320.082 737.241 320.399 738.374 321.034C739.507 321.669 740.391 322.553 741.026 323.686C741.661 324.797 741.989 326.077 742.012 327.528H729.5V330.894C729.5 332.889 729.942 334.509 730.826 335.756C731.733 336.98 733.036 337.592 734.736 337.592C736.3 337.592 737.683 337.15 738.884 336.266C740.085 335.382 740.822 334.237 741.094 332.832H741.876C741.559 334.509 740.754 335.847 739.462 336.844C738.17 337.841 736.595 338.34 734.736 338.34ZM738.272 326.678C738.272 324.706 737.966 323.244 737.354 322.292C736.742 321.317 735.79 320.83 734.498 320.83C732.979 320.83 731.801 321.363 730.962 322.428C730.123 323.493 729.647 324.91 729.534 326.678H738.272ZM744.274 337.32L746.654 336.98V321.408L744.274 321.068V320.388H750.054V323.006C751.482 321.057 753.092 320.082 754.882 320.082C755.744 320.082 756.503 320.309 757.16 320.762C757.818 321.193 758.146 321.816 758.146 322.632C758.146 323.221 757.954 323.72 757.568 324.128C757.183 324.513 756.673 324.706 756.038 324.706C755.313 324.706 754.724 324.423 754.27 323.856C754.52 323.539 754.644 323.199 754.644 322.836C754.644 322.451 754.508 322.145 754.236 321.918C753.987 321.669 753.647 321.544 753.216 321.544C752.74 321.544 752.253 321.771 751.754 322.224C751.256 322.655 750.689 323.335 750.054 324.264V336.98L752.774 337.32V338H744.274V337.32ZM766.557 338.34C764.699 338.34 763.146 337.943 761.899 337.15C760.653 336.357 760.029 335.325 760.029 334.056C760.029 333.399 760.199 332.889 760.539 332.526C760.902 332.141 761.378 331.948 761.967 331.948C762.421 331.948 762.806 332.061 763.123 332.288C763.441 332.515 763.667 332.832 763.803 333.24C763.305 333.784 763.055 334.362 763.055 334.974C763.055 335.677 763.373 336.289 764.007 336.81C764.642 337.331 765.492 337.592 766.557 337.592C767.985 337.592 769.153 337.275 770.059 336.64C770.966 335.983 771.419 335.11 771.419 334.022C771.419 333.387 771.227 332.911 770.841 332.594C770.456 332.277 769.708 331.914 768.597 331.506L763.463 329.636C761.446 328.911 760.437 327.562 760.437 325.59C760.437 323.981 760.993 322.666 762.103 321.646C763.214 320.603 764.744 320.082 766.693 320.082C768.303 320.082 769.674 320.456 770.807 321.204C771.963 321.929 772.541 322.972 772.541 324.332C772.541 324.876 772.394 325.318 772.099 325.658C771.805 325.975 771.419 326.134 770.943 326.134C770.467 326.134 770.071 326.009 769.753 325.76C769.459 325.488 769.311 325.125 769.311 324.672C769.606 324.445 769.81 324.207 769.923 323.958C770.037 323.686 770.093 323.369 770.093 323.006C770.093 322.371 769.81 321.85 769.243 321.442C768.699 321.034 767.849 320.83 766.693 320.83C765.696 320.83 764.835 320.989 764.109 321.306C763.407 321.601 762.874 321.997 762.511 322.496C762.149 322.995 761.967 323.505 761.967 324.026C761.967 324.57 762.16 325.001 762.545 325.318C762.953 325.635 763.69 325.987 764.755 326.372L769.515 328.072C770.626 328.48 771.465 329.047 772.031 329.772C772.598 330.497 772.881 331.438 772.881 332.594C772.881 334.249 772.36 335.62 771.317 336.708C770.275 337.796 768.688 338.34 766.557 338.34ZM477.104 384.34C475.654 384.34 474.464 383.966 473.534 383.218C472.605 382.447 472.14 381.314 472.14 379.818C472.14 377.687 473.036 376.18 474.826 375.296C476.617 374.389 478.691 373.936 481.048 373.936H483.326V371.318C483.326 370.139 483.19 369.233 482.918 368.598C482.669 367.941 482.272 367.487 481.728 367.238C481.184 366.966 480.448 366.83 479.518 366.83C478.453 366.83 477.66 367.045 477.138 367.476C476.617 367.884 476.356 368.439 476.356 369.142C476.356 369.799 476.674 370.23 477.308 370.434C477.308 371.001 477.093 371.499 476.662 371.93C476.232 372.361 475.722 372.576 475.132 372.576C474.498 372.576 473.988 372.406 473.602 372.066C473.217 371.703 473.024 371.159 473.024 370.434C473.024 369.119 473.682 368.065 474.996 367.272C476.311 366.479 477.954 366.082 479.926 366.082C484.46 366.082 486.726 368.054 486.726 371.998V381.722C486.726 382.221 486.828 382.606 487.032 382.878C487.259 383.127 487.576 383.252 487.984 383.252C488.37 383.252 488.676 383.127 488.902 382.878C489.129 382.606 489.242 382.243 489.242 381.79H489.956C489.956 382.583 489.696 383.207 489.174 383.66C488.676 384.113 487.973 384.34 487.066 384.34C486.024 384.34 485.14 384.045 484.414 383.456C483.712 382.844 483.349 381.903 483.326 380.634C482.782 381.79 481.944 382.697 480.81 383.354C479.7 384.011 478.464 384.34 477.104 384.34ZM478.974 382.844C479.586 382.844 480.21 382.663 480.844 382.3C481.502 381.937 482.057 381.416 482.51 380.736C482.964 380.033 483.236 379.195 483.326 378.22V374.684H481.048C479.19 374.684 477.796 375.103 476.866 375.942C475.96 376.758 475.506 377.914 475.506 379.41C475.506 380.657 475.801 381.541 476.39 382.062C476.98 382.583 477.841 382.844 478.974 382.844ZM490.785 383.32L493.165 382.98V367.408L490.785 367.068V366.388H496.565V370.06C497.404 368.836 498.39 367.873 499.523 367.17C500.657 366.445 501.881 366.082 503.195 366.082C504.827 366.082 506.108 366.49 507.037 367.306C507.989 368.122 508.465 369.335 508.465 370.944V382.98L510.845 383.32V384H503.025V383.32L505.065 382.98V371.012C505.065 369.833 504.827 368.927 504.351 368.292C503.875 367.635 503.139 367.306 502.141 367.306C501.099 367.306 500.09 367.691 499.115 368.462C498.163 369.21 497.313 370.139 496.565 371.25V382.98L498.605 383.32V384H490.785V383.32ZM521.037 384.34C519.428 384.34 518.011 383.966 516.787 383.218C515.563 382.447 514.611 381.382 513.931 380.022C513.251 378.639 512.911 377.03 512.911 375.194C512.911 373.358 513.251 371.76 513.931 370.4C514.611 369.017 515.563 367.952 516.787 367.204C518.011 366.456 519.428 366.082 521.037 366.082C522.352 366.082 523.497 366.433 524.471 367.136C525.446 367.816 526.217 368.757 526.783 369.958V357.82L524.403 357.48V356.8H530.183V382.98L532.563 383.32V384H526.783V380.464C526.217 381.665 525.446 382.617 524.471 383.32C523.497 384 522.352 384.34 521.037 384.34ZM521.377 383.49C522.375 383.49 523.27 383.207 524.063 382.64C524.879 382.051 525.525 381.28 526.001 380.328C526.5 379.353 526.761 378.299 526.783 377.166V373.256C526.761 372.123 526.5 371.08 526.001 370.128C525.525 369.153 524.879 368.383 524.063 367.816C523.27 367.227 522.375 366.932 521.377 366.932C518.227 366.932 516.651 369.119 516.651 373.494V376.894C516.651 381.291 518.227 383.49 521.377 383.49ZM542.758 384V383.286L545.886 382.776V358.024L542.758 357.548V356.8H563.226V364.586H562.308L559.69 357.65H549.626V369.89H554.046L556.052 364.96H556.936V375.704H556.052L554.012 370.706H549.626V383.184H560.302L563.09 375.704H563.974V384H542.758ZM566.82 383.32L569.2 382.98V367.408L566.82 367.068V366.388H572.6V370.06C573.439 368.836 574.425 367.873 575.558 367.17C576.692 366.445 577.916 366.082 579.23 366.082C580.862 366.082 582.143 366.49 583.072 367.306C584.024 368.122 584.5 369.335 584.5 370.944V382.98L586.88 383.32V384H579.06V383.32L581.1 382.98V371.012C581.1 369.833 580.862 368.927 580.386 368.292C579.91 367.635 579.174 367.306 578.176 367.306C577.134 367.306 576.125 367.691 575.15 368.462C574.198 369.21 573.348 370.139 572.6 371.25V382.98L574.64 383.32V384H566.82V383.32ZM595.44 384.34C593.944 384.34 592.743 383.966 591.836 383.218C590.952 382.47 590.51 381.28 590.51 379.648V367.408L588.096 367.068V366.388H590.51V363.566L593.91 362.716V366.388H598.33V367.068L593.91 367.408V379.58C593.91 381.983 594.772 383.184 596.494 383.184C596.857 383.184 597.197 383.127 597.514 383.014C597.854 382.901 598.115 382.787 598.296 382.674C598.5 382.561 598.625 382.481 598.67 382.436L599.112 382.98C598.092 383.887 596.868 384.34 595.44 384.34ZM608.68 384.34C607.003 384.34 605.484 383.966 604.124 383.218C602.764 382.447 601.688 381.371 600.894 379.988C600.101 378.605 599.704 377.007 599.704 375.194C599.704 373.381 600.09 371.794 600.86 370.434C601.654 369.051 602.708 367.986 604.022 367.238C605.36 366.467 606.844 366.082 608.476 366.082C609.904 366.082 611.185 366.399 612.318 367.034C613.452 367.669 614.336 368.553 614.97 369.686C615.605 370.797 615.934 372.077 615.956 373.528H603.444V376.894C603.444 378.889 603.886 380.509 604.77 381.756C605.677 382.98 606.98 383.592 608.68 383.592C610.244 383.592 611.627 383.15 612.828 382.266C614.03 381.382 614.766 380.237 615.038 378.832H615.82C615.503 380.509 614.698 381.847 613.406 382.844C612.114 383.841 610.539 384.34 608.68 384.34ZM612.216 372.678C612.216 370.706 611.91 369.244 611.298 368.292C610.686 367.317 609.734 366.83 608.442 366.83C606.924 366.83 605.745 367.363 604.906 368.428C604.068 369.493 603.592 370.91 603.478 372.678H612.216ZM618.219 383.32L620.599 382.98V367.408L618.219 367.068V366.388H623.999V369.006C625.427 367.057 627.036 366.082 628.827 366.082C629.688 366.082 630.447 366.309 631.105 366.762C631.762 367.193 632.091 367.816 632.091 368.632C632.091 369.221 631.898 369.72 631.513 370.128C631.127 370.513 630.617 370.706 629.983 370.706C629.257 370.706 628.668 370.423 628.215 369.856C628.464 369.539 628.589 369.199 628.589 368.836C628.589 368.451 628.453 368.145 628.181 367.918C627.931 367.669 627.591 367.544 627.161 367.544C626.685 367.544 626.197 367.771 625.699 368.224C625.2 368.655 624.633 369.335 623.999 370.264V382.98L626.719 383.32V384H618.219V383.32ZM633.056 392.942L635.436 392.602V367.442L633.056 367.102V366.422H638.836V369.992C639.402 368.768 640.162 367.816 641.114 367.136C642.088 366.433 643.244 366.082 644.582 366.082C646.191 366.082 647.608 366.467 648.832 367.238C650.056 367.986 651.008 369.051 651.688 370.434C652.368 371.794 652.708 373.392 652.708 375.228C652.708 377.064 652.368 378.673 651.688 380.056C651.008 381.416 650.056 382.47 648.832 383.218C647.608 383.966 646.191 384.34 644.582 384.34C643.244 384.34 642.088 384 641.114 383.32C640.162 382.617 639.402 381.665 638.836 380.464V392.602L642.032 392.942V393.622H633.056V392.942ZM644.242 383.49C647.392 383.49 648.968 381.303 648.968 376.928V373.528C648.968 369.131 647.392 366.932 644.242 366.932C643.244 366.932 642.338 367.227 641.522 367.816C640.706 368.383 640.06 369.153 639.584 370.128C639.108 371.103 638.858 372.157 638.836 373.29V376.928C638.836 378.084 639.062 379.172 639.516 380.192C639.992 381.189 640.638 381.994 641.454 382.606C642.292 383.195 643.222 383.49 644.242 383.49ZM655.074 383.32L657.454 382.98V367.408L655.074 367.068V366.388H660.854V369.006C662.282 367.057 663.892 366.082 665.682 366.082C666.544 366.082 667.303 366.309 667.96 366.762C668.618 367.193 668.946 367.816 668.946 368.632C668.946 369.221 668.754 369.72 668.368 370.128C667.983 370.513 667.473 370.706 666.838 370.706C666.113 370.706 665.524 370.423 665.07 369.856C665.32 369.539 665.444 369.199 665.444 368.836C665.444 368.451 665.308 368.145 665.036 367.918C664.787 367.669 664.447 367.544 664.016 367.544C663.54 367.544 663.053 367.771 662.554 368.224C662.056 368.655 661.489 369.335 660.854 370.264V382.98L663.574 383.32V384H655.074V383.32ZM673.753 362.444C673.119 362.444 672.575 362.229 672.121 361.798C671.668 361.345 671.441 360.801 671.441 360.166C671.441 359.531 671.657 358.999 672.087 358.568C672.541 358.137 673.096 357.922 673.753 357.922C674.365 357.922 674.887 358.137 675.317 358.568C675.748 358.999 675.963 359.531 675.963 360.166C675.963 360.801 675.748 361.345 675.317 361.798C674.887 362.229 674.365 362.444 673.753 362.444ZM670.149 384V383.32L672.529 382.98V367.442L670.149 367.102V366.422H675.929V382.98L678.309 383.32V384H670.149ZM687.185 384.34C685.327 384.34 683.774 383.943 682.527 383.15C681.281 382.357 680.657 381.325 680.657 380.056C680.657 379.399 680.827 378.889 681.167 378.526C681.53 378.141 682.006 377.948 682.595 377.948C683.049 377.948 683.434 378.061 683.751 378.288C684.069 378.515 684.295 378.832 684.431 379.24C683.933 379.784 683.683 380.362 683.683 380.974C683.683 381.677 684.001 382.289 684.635 382.81C685.27 383.331 686.12 383.592 687.185 383.592C688.613 383.592 689.781 383.275 690.687 382.64C691.594 381.983 692.047 381.11 692.047 380.022C692.047 379.387 691.855 378.911 691.469 378.594C691.084 378.277 690.336 377.914 689.225 377.506L684.091 375.636C682.074 374.911 681.065 373.562 681.065 371.59C681.065 369.981 681.621 368.666 682.731 367.646C683.842 366.603 685.372 366.082 687.321 366.082C688.931 366.082 690.302 366.456 691.435 367.204C692.591 367.929 693.169 368.972 693.169 370.332C693.169 370.876 693.022 371.318 692.727 371.658C692.433 371.975 692.047 372.134 691.571 372.134C691.095 372.134 690.699 372.009 690.381 371.76C690.087 371.488 689.939 371.125 689.939 370.672C690.234 370.445 690.438 370.207 690.551 369.958C690.665 369.686 690.721 369.369 690.721 369.006C690.721 368.371 690.438 367.85 689.871 367.442C689.327 367.034 688.477 366.83 687.321 366.83C686.324 366.83 685.463 366.989 684.737 367.306C684.035 367.601 683.502 367.997 683.139 368.496C682.777 368.995 682.595 369.505 682.595 370.026C682.595 370.57 682.788 371.001 683.173 371.318C683.581 371.635 684.318 371.987 685.383 372.372L690.143 374.072C691.254 374.48 692.093 375.047 692.659 375.772C693.226 376.497 693.509 377.438 693.509 378.594C693.509 380.249 692.988 381.62 691.945 382.708C690.903 383.796 689.316 384.34 687.185 384.34ZM705.633 384.34C703.956 384.34 702.437 383.966 701.077 383.218C699.717 382.447 698.641 381.371 697.847 379.988C697.054 378.605 696.657 377.007 696.657 375.194C696.657 373.381 697.043 371.794 697.813 370.434C698.607 369.051 699.661 367.986 700.975 367.238C702.313 366.467 703.797 366.082 705.429 366.082C706.857 366.082 708.138 366.399 709.271 367.034C710.405 367.669 711.289 368.553 711.923 369.686C712.558 370.797 712.887 372.077 712.909 373.528H700.397V376.894C700.397 378.889 700.839 380.509 701.723 381.756C702.63 382.98 703.933 383.592 705.633 383.592C707.197 383.592 708.58 383.15 709.781 382.266C710.983 381.382 711.719 380.237 711.991 378.832H712.773C712.456 380.509 711.651 381.847 710.359 382.844C709.067 383.841 707.492 384.34 705.633 384.34ZM709.169 372.678C709.169 370.706 708.863 369.244 708.251 368.292C707.639 367.317 706.687 366.83 705.395 366.83C703.877 366.83 702.698 367.363 701.859 368.428C701.021 369.493 700.545 370.91 700.431 372.678H709.169ZM722.414 384.34C720.555 384.34 719.003 383.943 717.756 383.15C716.509 382.357 715.886 381.325 715.886 380.056C715.886 379.399 716.056 378.889 716.396 378.526C716.759 378.141 717.235 377.948 717.824 377.948C718.277 377.948 718.663 378.061 718.98 378.288C719.297 378.515 719.524 378.832 719.66 379.24C719.161 379.784 718.912 380.362 718.912 380.974C718.912 381.677 719.229 382.289 719.864 382.81C720.499 383.331 721.349 383.592 722.414 383.592C723.842 383.592 725.009 383.275 725.916 382.64C726.823 381.983 727.276 381.11 727.276 380.022C727.276 379.387 727.083 378.911 726.698 378.594C726.313 378.277 725.565 377.914 724.454 377.506L719.32 375.636C717.303 374.911 716.294 373.562 716.294 371.59C716.294 369.981 716.849 368.666 717.96 367.646C719.071 366.603 720.601 366.082 722.55 366.082C724.159 366.082 725.531 366.456 726.664 367.204C727.82 367.929 728.398 368.972 728.398 370.332C728.398 370.876 728.251 371.318 727.956 371.658C727.661 371.975 727.276 372.134 726.8 372.134C726.324 372.134 725.927 372.009 725.61 371.76C725.315 371.488 725.168 371.125 725.168 370.672C725.463 370.445 725.667 370.207 725.78 369.958C725.893 369.686 725.95 369.369 725.95 369.006C725.95 368.371 725.667 367.85 725.1 367.442C724.556 367.034 723.706 366.83 722.55 366.83C721.553 366.83 720.691 366.989 719.966 367.306C719.263 367.601 718.731 367.997 718.368 368.496C718.005 368.995 717.824 369.505 717.824 370.026C717.824 370.57 718.017 371.001 718.402 371.318C718.81 371.635 719.547 371.987 720.612 372.372L725.372 374.072C726.483 374.48 727.321 375.047 727.888 375.772C728.455 376.497 728.738 377.438 728.738 378.594C728.738 380.249 728.217 381.62 727.174 382.708C726.131 383.796 724.545 384.34 722.414 384.34Z" fill="white"/>
</svg>
