<svg width="700" height="321" viewBox="0 0 700 321" fill="none" xmlns="http://www.w3.org/2000/svg">
<rect width="700" height="321" fill="#080808"/>
<path d="M177.452 139.22C180.204 139.266 181.488 138.028 181.488 135.644V112.166C181.488 109.598 180.662 108.727 177.452 108.773V107.947L184.101 107.993L191.484 108.039C197.583 108.039 200.609 111.203 200.609 116.018C200.609 122.85 194.006 125.556 187.907 125.693V124.868C193.547 124.776 196.62 121.933 196.62 116.751C196.62 112.12 193.685 109.506 188.091 109.506H185.523V135.644C185.523 137.982 186.853 139.266 189.558 139.22V140.046H177.452V139.22ZM203.162 139.22C204.629 139.266 206.601 138.945 206.601 137.111V113.862C206.601 110.286 206.601 108.727 203.574 108.773V107.993L210.223 105.654V137.111C210.223 138.945 212.103 139.266 213.571 139.22V140.046H203.162V139.22ZM221.115 140.596C217.814 140.596 215.75 138.624 215.75 135.46C215.75 132.984 218.043 130.325 222.95 129.041L228.223 127.344V122.896C228.223 119.915 226.16 118.127 222.537 118.402C219.969 118.631 219.969 119.732 220.749 123.171C221.299 125.235 216.209 125.326 216.209 122.483C216.209 119.64 222.033 116.614 225.197 116.568C229.415 116.522 231.983 119.09 231.937 122.85L231.846 133.855C231.8 138.533 233.267 138.395 235.652 138.349V139.037C234.551 140 233.038 140.504 231.112 140.459C229.232 140.413 228.498 139.083 228.315 136.79C226.756 138.578 223.592 140.596 221.115 140.596ZM219.51 134.452C219.51 136.515 221.161 138.212 223.271 138.257C225.105 138.303 226.71 137.203 228.223 135.552V128.72L223.133 130.462C220.382 131.333 219.51 132.847 219.51 134.452ZM243.811 140.504C240.555 140.504 239.225 138.991 239.225 134.222V118.769H235.236V117.806C240.005 117.072 240.555 113.312 241.518 110.194H242.848V117.027H249.084V118.769H242.848V133.626C242.848 136.974 243.903 138.212 246.379 138.212C247.388 138.212 248.534 138.12 249.359 137.661V138.487C248.167 139.771 246.7 140.504 243.811 140.504ZM259.698 140.459C255.937 140.459 253.507 137.249 253.507 132.113V120.099C253.507 118.769 252.361 117.806 250.114 117.852V117.027H257.13V131.196C257.13 135.644 258.918 138.028 262.128 138.028C264.512 138.028 266.989 136.056 269.006 133.351V120.099C269.006 118.723 267.906 117.806 265.659 117.852V117.027H272.675V132.25C272.675 135.781 272.629 137.661 275.701 137.57V138.349L269.511 140.367L269.144 135.002C265.888 138.487 262.449 140.459 259.698 140.459ZM285.358 140.504C282.836 140.55 279.351 139.679 277.838 138.624L276.645 131.838H277.333C279.397 136.24 280.681 138.808 285.037 138.808C288.751 138.808 290.585 137.432 290.54 134.635C290.494 131.379 287.742 130.875 284.67 130.095C279.855 128.765 277.608 126.61 277.563 123.355C277.517 119.686 280.864 116.66 285.037 116.568C286.688 116.522 288.476 117.164 289.943 117.623C290.585 117.852 291.182 118.081 291.64 118.173L292.19 123.676H291.548C290.494 120.42 289.668 117.989 285.541 118.081C282.423 118.081 280.635 119.594 280.681 122.346C280.681 124.409 282.698 125.097 285.037 125.831C285.45 125.968 285.862 126.106 286.275 126.243C290.631 127.757 293.199 129.041 293.337 133.534C293.474 137.707 290.356 140.413 285.358 140.504ZM307.03 139.22C310.148 139.266 311.478 138.12 312.854 134.543C316.018 126.381 319.182 117.623 322.391 107.947H325.51C326.794 111.295 333.901 129.224 336.882 136.194C337.661 138.028 338.945 139.312 340.688 139.22V140.046H329.132V139.22C331.929 139.266 333.076 138.028 332.388 136.102L329.499 128.49H317.118L314.917 134.681C313.816 137.707 314.871 139.266 318.448 139.22V140.046H307.03V139.22ZM317.714 126.702H328.811L323.079 111.707L317.714 126.702ZM350.647 140.459C346.887 140.459 344.456 137.249 344.456 132.113V120.099C344.456 118.769 343.31 117.806 341.063 117.852V117.027H348.079V131.196C348.079 135.644 349.867 138.028 353.077 138.028C355.462 138.028 357.938 136.056 359.955 133.351V120.099C359.955 118.723 358.855 117.806 356.608 117.852V117.027H363.624V132.25C363.624 135.781 363.578 137.661 366.65 137.57V138.349L360.46 140.367L360.093 135.002C356.837 138.487 353.398 140.459 350.647 140.459ZM374.794 140.504C371.538 140.504 370.208 138.991 370.208 134.222V118.769H366.219V117.806C370.988 117.072 371.538 113.312 372.501 110.194H373.831V117.027H380.067V118.769H373.831V133.626C373.831 136.974 374.886 138.212 377.362 138.212C378.371 138.212 379.517 138.12 380.342 137.661V138.487C379.15 139.771 377.683 140.504 374.794 140.504ZM392.806 140.504C386.249 140.504 381.617 135.369 381.617 128.078C381.617 121.658 386.524 116.568 392.806 116.568C399.042 116.568 403.949 121.658 403.949 128.078C403.949 135.369 399.318 140.504 392.806 140.504ZM385.882 128.032C385.928 135.048 388.45 138.854 392.806 138.854C397.254 138.854 399.776 135.048 399.776 128.032C399.776 121.841 397.071 118.081 392.806 118.081C388.404 118.081 385.79 121.841 385.882 128.032ZM405.928 139.22C408.129 139.266 409.321 138.487 409.321 137.157V123.63C409.321 119.915 409.184 119.594 406.341 119.594V118.815L412.577 116.751L412.944 122.116C416.337 118.173 418.767 116.568 421.335 116.568C425.095 116.568 426.746 118.219 427.755 121.795C430.598 118.677 434.083 116.568 436.468 116.568C440.824 116.568 443.162 119.365 443.162 124.914V137.157C443.162 138.533 444.355 139.266 446.647 139.22V140.046H436.238V139.22C438.348 139.266 439.494 138.487 439.494 137.157V125.785C439.494 121.612 437.797 119.411 434.542 119.411C432.249 119.411 430.185 120.42 428.076 123.079L428.03 137.157C428.03 138.533 429.177 139.266 431.469 139.22V140.046H421.152V139.22C423.307 139.266 424.408 138.533 424.408 137.157V125.785C424.408 121.566 422.711 119.411 419.455 119.411C417.071 119.411 415.007 121.108 412.99 123.721V137.157C412.99 138.533 414.136 139.266 416.383 139.22V140.046H405.928V139.22ZM453.974 140.596C450.673 140.596 448.609 138.624 448.609 135.46C448.609 132.984 450.902 130.325 455.808 129.041L461.082 127.344V122.896C461.082 119.915 459.018 118.127 455.396 118.402C452.828 118.631 452.828 119.732 453.607 123.171C454.158 125.235 449.068 125.326 449.068 122.483C449.068 119.64 454.891 116.614 458.055 116.568C462.274 116.522 464.842 119.09 464.796 122.85L464.704 133.855C464.658 138.533 466.126 138.395 468.51 138.349V139.037C467.41 140 465.897 140.504 463.971 140.459C462.091 140.413 461.357 139.083 461.173 136.79C459.614 138.578 456.45 140.596 453.974 140.596ZM452.369 134.452C452.369 136.515 454.02 138.212 456.129 138.257C457.964 138.303 459.569 137.203 461.082 135.552V128.72L455.992 130.462C453.241 131.333 452.369 132.847 452.369 134.452ZM476.67 140.504C473.414 140.504 472.084 138.991 472.084 134.222V118.769H468.095V117.806C472.864 117.072 473.414 113.312 474.377 110.194H475.707V117.027H481.943V118.769H475.707V133.626C475.707 136.974 476.761 138.212 479.238 138.212C480.246 138.212 481.393 138.12 482.218 137.661V138.487C481.026 139.771 479.559 140.504 476.67 140.504ZM494.132 140.596C487.895 140.596 483.447 135.277 483.493 128.49C483.539 122.025 488.354 116.568 494.086 116.568C500.322 116.568 503.486 120.053 503.532 127.298H486.932C486.978 133.122 490.876 137.753 496.195 137.753C499.084 137.753 501.056 136.515 502.661 134.176H503.394C502.752 136.102 499.13 140.596 494.132 140.596ZM487.024 125.693H499.497V125.372C499.497 120.328 497.571 117.852 493.811 117.852C490.417 117.852 487.758 120.97 487.024 125.693ZM515.351 140.504C512.829 140.55 509.344 139.679 507.83 138.624L506.638 131.838H507.326C509.39 136.24 510.674 138.808 515.03 138.808C518.744 138.808 520.578 137.432 520.532 134.635C520.487 131.379 517.735 130.875 514.663 130.095C509.848 128.765 507.601 126.61 507.555 123.355C507.509 119.686 510.857 116.66 515.03 116.568C516.681 116.522 518.469 117.164 519.936 117.623C520.578 117.852 521.174 118.081 521.633 118.173L522.183 123.676H521.541C520.487 120.42 519.661 117.989 515.534 118.081C512.416 118.081 510.628 119.594 510.674 122.346C510.674 124.409 512.691 125.097 515.03 125.831C515.442 125.968 515.855 126.106 516.268 126.243C520.624 127.757 523.192 129.041 523.33 133.534C523.467 137.707 520.349 140.413 515.351 140.504ZM177.296 181.22C180.23 181.22 181.331 180.349 181.331 178.194V153.753C181.331 151.598 180.322 150.727 177.296 150.773V149.947H189.401V150.773C186.604 150.727 185.366 151.736 185.366 153.753V177.644C185.366 179.845 186.375 180.487 189.722 180.487H196.692C198.389 180.487 200.177 178.011 202.195 173.7H202.883L200.59 182.046H177.296V181.22ZM213.917 182.596C207.681 182.596 203.233 177.277 203.279 170.49C203.325 164.025 208.14 158.568 213.872 158.568C220.108 158.568 223.272 162.053 223.318 169.298H206.718C206.764 175.122 210.662 179.753 215.981 179.753C218.87 179.753 220.842 178.515 222.446 176.176H223.18C222.538 178.102 218.916 182.596 213.917 182.596ZM206.81 167.693H219.282V167.372C219.282 162.328 217.357 159.852 213.596 159.852C210.203 159.852 207.544 162.97 206.81 167.693ZM234.036 193.601C224.727 193.601 222.893 187.732 230.597 182.688C225.507 181.404 226.837 178.653 230.597 175.076C228.121 172.967 226.928 170.536 226.928 167.464C226.928 162.42 230.643 158.568 236.191 158.568C238.301 158.568 239.906 159.027 241.877 160.677L248.435 160.219V162.328L243.299 162.236C244.308 163.429 244.904 165.4 244.904 167.464C244.904 172.554 240.731 176.406 235.458 176.406C233.898 176.406 232.615 176.222 231.376 175.58C228.304 179.753 230.138 179.937 236.054 179.753C242.152 179.57 248.389 180.12 248.389 184.293C248.389 190.346 241.098 193.601 234.036 193.601ZM230.964 168.885C231.468 172.737 233.211 174.938 236.604 174.938C239.906 174.938 241.373 172.004 240.914 167.051C240.502 161.549 239.264 159.76 235.916 159.76C231.743 159.76 230.23 162.649 230.964 168.885ZM231.56 182.963C227.158 187.824 229.909 191.996 236.375 191.996C240.364 191.996 245.775 189.979 245.592 186.494C245.408 183.743 241.465 183.376 237.475 183.33C234.678 183.284 232.706 183.146 231.56 182.963ZM256.067 182.596C252.765 182.596 250.702 180.624 250.702 177.46C250.702 174.984 252.994 172.325 257.901 171.041L263.174 169.344V164.896C263.174 161.915 261.111 160.127 257.488 160.402C254.92 160.631 254.92 161.732 255.7 165.171C256.25 167.235 251.16 167.326 251.16 164.483C251.16 161.64 256.984 158.614 260.148 158.568C264.366 158.522 266.934 161.09 266.888 164.85L266.797 175.855C266.751 180.533 268.218 180.395 270.603 180.349V181.037C269.502 182 267.989 182.504 266.063 182.459C264.183 182.413 263.449 181.083 263.266 178.79C261.707 180.578 258.543 182.596 256.067 182.596ZM254.462 176.452C254.462 178.515 256.112 180.212 258.222 180.257C260.056 180.303 261.661 179.203 263.174 177.552V170.72L258.084 172.462C255.333 173.333 254.462 174.847 254.462 176.452ZM270.713 181.22C272.18 181.266 274.152 180.945 274.152 179.111V155.862C274.152 152.286 274.152 150.727 271.126 150.773V149.993L277.775 147.654V179.111C277.775 180.945 279.655 181.266 281.122 181.22V182.046H270.713V181.22ZM310.763 182.504C302.05 182.504 295.309 175.489 295.309 166.363C295.309 156.917 302.692 149.489 311.955 149.489C320.805 149.489 327.454 156.55 327.454 165.859C327.454 175.626 320.576 182.504 310.763 182.504ZM300.033 165.309C300.078 174.709 304.847 180.899 311.955 180.899C319.062 180.899 322.96 175.81 322.914 166.226C322.914 157.605 318.145 151.139 311.68 151.002C304.664 150.727 299.987 156.459 300.033 165.309ZM331.173 192.134C333.007 192.18 334.612 191.584 334.612 189.153V163.704C334.612 161.915 333.833 160.769 330.898 160.815V160.081L337.822 158.935L338.189 161.961C340.069 160.31 342.5 158.568 345.205 158.568C350.983 158.568 354.926 162.924 354.926 169.39C354.926 176.085 350.066 182.138 344.425 182.138C342.637 182.138 339.886 181.496 338.235 180.578V189.153C338.235 190.942 339.473 192.226 341.628 192.134V192.959H331.173V192.134ZM338.235 178.836C339.565 179.891 341.812 180.578 344.013 180.578C347.773 180.578 350.753 175.672 350.753 170.032C350.753 163.658 348.461 160.402 343.783 160.402C341.078 160.402 338.877 162.924 338.235 163.658V178.836ZM368.948 182.596C362.711 182.596 358.263 177.277 358.309 170.49C358.355 164.025 363.17 158.568 368.902 158.568C375.138 158.568 378.302 162.053 378.348 169.298H361.748C361.794 175.122 365.692 179.753 371.011 179.753C373.9 179.753 375.872 178.515 377.477 176.176H378.21C377.568 178.102 373.946 182.596 368.948 182.596ZM361.84 167.693H374.313V167.372C374.313 162.328 372.387 159.852 368.627 159.852C365.233 159.852 362.574 162.97 361.84 167.693ZM380.336 181.22C382.583 181.266 383.775 180.487 383.775 179.157V165.584C383.775 161.915 383.225 161.594 380.749 161.549V160.769L387.077 158.706L387.398 164.85L387.077 164.758C389.278 161.273 391.846 158.568 394.597 158.568C396.202 158.568 397.44 159.577 397.44 160.861C397.44 162.236 396.752 163.153 395.697 163.153C394.551 163.153 393.817 162.787 393.221 162.512C392.258 162.053 391.662 161.778 390.286 163.153C389.002 164.437 387.443 165.538 387.443 168.335V179.157C387.443 180.533 388.636 181.266 390.883 181.22V182.046H380.336V181.22ZM404.245 182.596C400.944 182.596 398.88 180.624 398.88 177.46C398.88 174.984 401.173 172.325 406.08 171.041L411.353 169.344V164.896C411.353 161.915 409.289 160.127 405.667 160.402C403.099 160.631 403.099 161.732 403.879 165.171C404.429 167.235 399.339 167.326 399.339 164.483C399.339 161.64 405.163 158.614 408.327 158.568C412.545 158.522 415.113 161.09 415.067 164.85L414.976 175.855C414.93 180.533 416.397 180.395 418.782 180.349V181.037C417.681 182 416.168 182.504 414.242 182.459C412.362 182.413 411.628 181.083 411.445 178.79C409.886 180.578 406.722 182.596 404.245 182.596ZM402.64 176.452C402.64 178.515 404.291 180.212 406.401 180.257C408.235 180.303 409.84 179.203 411.353 177.552V170.72L406.263 172.462C403.512 173.333 402.64 174.847 402.64 176.452ZM426.941 182.504C423.685 182.504 422.355 180.991 422.355 176.222V160.769H418.366V159.806C423.135 159.072 423.685 155.312 424.648 152.194H425.978V159.027H432.214V160.769H425.978V175.626C425.978 178.974 427.033 180.212 429.509 180.212C430.518 180.212 431.664 180.12 432.489 179.661V180.487C431.297 181.771 429.83 182.504 426.941 182.504ZM433.398 181.22C435.599 181.266 436.745 180.487 436.745 179.157V165.309C436.745 162.97 436.103 162.374 433.168 162.42V161.64L440.413 158.935V179.157C440.413 180.487 441.56 181.266 443.715 181.22V182.046H433.398V181.22ZM435.782 151.277C435.782 149.901 436.974 148.663 438.35 148.663C439.726 148.663 440.964 149.901 440.964 151.277C440.964 152.607 439.726 153.845 438.35 153.845C436.974 153.845 435.782 152.607 435.782 151.277ZM456.417 182.504C449.86 182.504 445.228 177.369 445.228 170.078C445.228 163.658 450.135 158.568 456.417 158.568C462.653 158.568 467.56 163.658 467.56 170.078C467.56 177.369 462.928 182.504 456.417 182.504ZM449.493 170.032C449.539 177.048 452.061 180.854 456.417 180.854C460.865 180.854 463.387 177.048 463.387 170.032C463.387 163.841 460.681 160.081 456.417 160.081C452.015 160.081 449.401 163.841 449.493 170.032ZM469.539 181.22C471.74 181.266 472.932 180.487 472.932 179.157V166.776C472.932 163.199 473.115 161.594 469.951 161.64V160.861L476.188 158.797L476.555 164.071C479.627 160.586 483.112 158.568 485.955 158.568C489.715 158.568 492.145 161.778 492.145 166.914V179.157C492.145 180.533 493.292 181.266 495.584 181.22V182.046H485.129V181.22C487.376 181.266 488.477 180.533 488.477 179.157V167.785C488.477 163.658 486.78 161.411 483.57 161.411C481.048 161.411 478.48 163.245 476.6 165.676V179.157C476.6 180.533 477.747 181.266 479.994 181.22V182.046H469.539V181.22ZM506.238 182.504C503.716 182.55 500.231 181.679 498.718 180.624L497.525 173.838H498.213C500.277 178.24 501.561 180.808 505.917 180.808C509.631 180.808 511.465 179.432 511.42 176.635C511.374 173.379 508.622 172.875 505.55 172.095C500.735 170.765 498.488 168.61 498.443 165.355C498.397 161.686 501.744 158.66 505.917 158.568C507.568 158.522 509.356 159.164 510.823 159.623C511.465 159.852 512.062 160.081 512.52 160.173L513.07 165.676H512.428C511.374 162.42 510.548 159.989 506.421 160.081C503.303 160.081 501.515 161.594 501.561 164.346C501.561 166.409 503.578 167.097 505.917 167.831C506.33 167.968 506.742 168.106 507.155 168.243C511.511 169.757 514.079 171.041 514.217 175.534C514.354 179.707 511.236 182.413 506.238 182.504ZM520.258 182.596C518.699 182.596 517.37 181.312 517.37 179.937C517.37 178.469 518.699 177.185 520.258 177.185C521.818 177.185 523.239 178.469 523.239 179.937C523.239 181.312 521.818 182.596 520.258 182.596Z" fill="white"/>
</svg>
